PathFileType	4	(X/Y/Z)	c:/Users/goper/Files/vsCode/490R/osim_files/A01/A01_PWS_04.trc
DataRate	CameraRate	NumFrames	NumMarkers	Units                	OrigDataRate	OrigDataStartFrame	OrigNumFrames
120.00	120.00	9	36	mm	120.0	593	1184
                Frame#	Time	Mobility_markerset:LPSIS			Mobility_markerset:LASIS			Mobility_markerset:LTH1			Mobility_markerset:LTH2			Mobility_markerset:LTH3			Mobility_markerset:LTH4			Mobility_markerset:LLFE			Mobility_markerset:LMFE			Mobility_markerset:LSH1			Mobility_markerset:LSH2			Mobility_markerset:LSH3			Mobility_markerset:LSH4			Mobility_markerset:LLMAL			Mobility_markerset:LMMAL			Mobility_markerset:LCAL			Mobility_markerset:LMTP5			Mobility_markerset:LTOE			Mobility_markerset:LMTP1			Mobility_markerset:RPSIS			Mobility_markerset:RASIS			Mobility_markerset:RTH1			Mobility_markerset:RTH2			Mobility_markerset:RTH3			Mobility_markerset:RTH4			Mobility_markerset:RLFE			Mobility_markerset:RMFE			Mobility_markerset:RSH1			Mobility_markerset:RSH2			Mobility_markerset:RSH3			Mobility_markerset:RSH4			Mobility_markerset:RLMAL			Mobility_markerset:RMMAL			Mobility_markerset:RCAL			Mobility_markerset:RMTP1			Mobility_markerset:RTOE			Mobility_markerset:RMTP5		
		X1	Y1	Z1	X2	Y2	Z2	X3	Y3	Z3	X4	Y4	Z4	X5	Y5	Z5	X6	Y6	Z6	X7	Y7	Z7	X8	Y8	Z8	X9	Y9	Z9	X10	Y10	Z10	X11	Y11	Z11	X12	Y12	Z12	X13	Y13	Z13	X14	Y14	Z14	X15	Y15	Z15	X16	Y16	Z16	X17	Y17	Z17	X18	Y18	Z18	X19	Y19	Z19	X20	Y20	Z20	X21	Y21	Z21	X22	Y22	Z22	X23	Y23	Z23	X24	Y24	Z24	X25	Y25	Z25	X26	Y26	Z26	X27	Y27	Z27	X28	Y28	Z28	X29	Y29	Z29	X30	Y30	Z30	X31	Y31	Z31	X32	Y32	Z32	X33	Y33	Z33	X34	Y34	Z34	X35	Y35	Z35	X36	Y36	Z36

593	4.93333	-599.46716	1051.76123	339.30814	-836.19592	1025.95227	438.28848	-760.06732	699.00995	486.45093	-757.14252	654.51025	473.16327	-699.37250	697.82831	483.74655	-704.75269	651.41919	474.59912	-731.20697	534.52753	437.46390	-750.65869	541.78284	300.88657	-656.09045	384.51025	420.14487	-644.97095	338.06720	420.55716	-715.03363	365.06284	418.43091	-696.26050	322.69980	417.87378	-600.85254	96.74342	392.64087	-590.52686	97.80782	308.77582	-518.25806	75.44110	351.06683	-735.56989	36.04497	409.41580	-763.11053	56.26610	342.08029	-747.12494	47.23835	307.41006	-603.74170	1041.11511	236.50423	-838.28595	1007.85419	178.69257	-836.97424	677.28864	106.27166	-862.66901	642.35339	113.98147	-890.93365	708.37537	110.01268	-907.20111	669.33698	115.47630	-950.93811	530.40436	156.16928	-955.06226	545.56866	276.56189	-863.96796	328.17816	148.64410	-868.27649	283.32855	148.01462	-925.41620	327.80661	142.07372	-921.56970	282.99081	141.41249	-898.97388	103.06946	173.63745	-930.49005	124.63998	255.09030	-854.16193	73.66976	230.09856	-1063.38916	69.18233	243.14494	-1090.33179	88.82134	194.19370	-1032.31274	50.62079	136.10483
594	4.94167	-608.72247	1051.34448	336.86304	-844.38995	1024.67957	438.86166	-765.83929	698.18433	486.46115	-762.87421	653.49597	473.01224	-705.33221	697.46985	483.40503	-710.46698	650.92426	474.25534	-736.15619	533.68091	437.38968	-755.98712	540.56525	300.98401	-659.52325	384.50308	419.98389	-648.20081	337.93649	420.35556	-718.31598	364.40723	418.28674	-699.07910	322.20999	417.82416	-601.38354	97.19723	392.71674	-591.00433	98.25716	308.54779	-518.62610	76.30279	351.00497	-735.68597	35.93594	409.48859	-763.12189	56.11459	342.08371	-747.22192	47.19533	307.30566	-613.43878	1040.52368	234.64726	-848.79590	1006.06580	178.94113	-845.47821	675.82526	106.32966	-870.78241	640.69067	113.93283	-899.58795	706.47156	110.33340	-915.67786	667.19983	115.64449	-959.54327	528.98346	155.35872	-961.65485	542.72168	277.15372	-883.32037	323.63730	147.21570	-890.30475	279.06335	146.66533	-944.80646	326.64255	141.20517	-943.49542	281.84433	140.44640	-930.74414	100.48681	172.83684	-960.56720	123.52446	254.20073	-887.06659	68.99156	229.03239	-1096.21423	75.20747	242.94353	-1122.52515	96.31918	193.59215	-1066.60229	55.13226	135.34293
595	4.95000	-617.99225	1050.64514	334.45825	-852.57275	1023.35522	439.52924	-771.88159	697.19305	486.14380	-768.51147	652.52209	472.84351	-711.21985	696.90332	482.98764	-716.08344	650.40503	473.93250	-741.07495	532.80493	437.28937	-761.19342	539.50262	300.85220	-662.88812	384.41949	419.78503	-651.23895	337.82932	420.22400	-721.36658	363.76913	418.31888	-701.83179	321.75003	417.73004	-601.72980	97.60203	392.75916	-591.52100	98.70557	308.29816	-518.99335	77.23292	350.90991	-735.74890	35.81975	409.56897	-763.07306	55.94407	342.06833	-747.31030	47.14769	307.22559	-623.69135	1039.75317	232.44208	-860.07623	1004.11633	179.06020	-853.50262	673.91473	106.14983	-878.64862	638.55707	113.55820	-907.96021	704.12738	110.42393	-923.72949	664.77319	115.51566	-968.04651	527.32910	154.10046	-968.15680	539.29224	277.51114	-902.83105	319.90363	145.55479	-912.03766	275.57593	145.13724	-963.96289	325.93286	140.30705	-966.24866	282.02051	140.05090	-961.73706	99.45941	171.79034	-989.84515	123.83166	253.34938	-919.38531	65.28863	228.09938	-1128.33228	82.79189	242.00763	-1153.20984	104.84380	193.08691	-1099.58716	60.75700	134.72923
596	4.95833	-627.54059	1050.02502	332.01184	-860.96387	1022.03491	439.97531	-777.87872	696.10486	485.99435	-774.20007	651.46179	472.64453	-717.11145	696.39618	482.61765	-721.32080	650.20490	473.93527	-746.09735	531.81854	437.15857	-766.38019	538.34564	300.70551	-666.31036	384.31345	419.62869	-654.27264	337.63065	420.04666	-724.64142	363.00662	418.23288	-703.87024	321.57904	417.92661	-602.03424	98.28590	393.08743	-592.05548	99.16219	308.02130	-519.37830	78.08836	350.78394	-735.88232	35.71707	409.66995	-763.07056	55.78210	342.05405	-747.38806	47.11154	307.17853	-634.13226	1038.91064	230.19684	-870.93140	1001.91815	179.47258	-861.40948	671.76898	105.55704	-886.13013	636.15570	112.78230	-916.06915	701.41870	110.07754	-931.37634	661.89386	114.89977	-976.57324	525.50977	152.62849	-974.81995	535.65295	277.69199	-922.10681	316.68124	144.12831	-933.52863	272.77670	143.76222	-982.83044	325.67355	139.37854	-987.05475	281.56116	139.22032	-991.31329	99.02769	171.09114	-1018.15857	124.92222	252.95134	-950.82324	62.98226	227.23457	-1158.52039	90.54533	241.30809	-1182.26685	113.91867	192.62926	-1131.08459	67.13992	134.16982
597	4.96667	-637.27393	1049.32556	329.53256	-869.33417	1020.70337	440.31567	-783.81409	695.01520	485.81104	-779.77264	650.42206	472.56290	-721.80182	695.96906	482.32602	-727.68768	649.03888	472.94745	-751.12354	530.79956	437.06369	-771.71277	537.10114	300.61499	-669.98993	384.00482	419.91687	-657.46149	337.43835	419.88815	-728.64557	363.03665	418.37991	-707.33356	320.71814	417.71246	-602.74652	98.42484	392.99142	-592.50769	99.62455	307.81036	-519.81274	79.00188	350.65854	-735.94543	35.62423	409.80798	-763.05731	55.64526	342.06152	-747.42053	47.13223	307.14380	-644.77679	1038.03040	227.89970	-881.98932	999.59497	179.80885	-869.06482	669.34418	104.59634	-893.28021	633.42542	111.45107	-923.92487	698.42395	109.23420	-939.20892	656.55157	113.48596	-985.56195	523.82727	151.00507	-981.72864	532.08142	277.91336	-940.92877	314.06381	142.78551	-954.23267	270.77377	142.60097	-1000.87494	325.96420	137.60559	-1007.29309	281.61850	138.59137	-1019.69928	99.49992	170.46243	-1044.96533	126.79185	252.22221	-980.82751	61.21685	226.62701	-1186.72034	99.03192	241.28284	-1209.80188	123.32552	192.42177	-1160.94995	74.11051	133.81007
598	4.97500	-646.84174	1048.71509	327.22458	-877.93958	1019.31628	440.67377	-789.86432	694.01135	485.62717	-785.53186	649.27216	472.35861	-728.35516	695.43793	482.04044	-733.21637	648.46222	472.59308	-756.16394	529.91058	437.02451	-776.99451	535.79059	300.43433	-673.55725	383.84671	419.67429	-660.65491	337.28308	419.73230	-731.03656	361.42731	418.18628	-709.90497	319.85913	418.03888	-603.18610	98.87325	393.09924	-593.06635	100.12019	307.50946	-520.22888	80.03580	350.52136	-736.01428	35.56163	409.87894	-763.01947	55.54657	342.05042	-747.48157	47.11883	307.10657	-655.57678	1037.08594	225.58246	-893.12885	997.09271	180.19322	-876.39203	666.68677	103.16798	-900.40857	630.43964	109.84034	-931.66339	695.10583	107.86971	-946.63184	653.55347	111.96602	-994.86084	522.31116	149.61391	-988.50159	529.07336	278.16922	-959.25507	311.95053	141.62820	-974.41791	269.32175	141.51357	-1018.84747	326.26300	137.07785	-1026.45483	281.72284	137.84534	-1046.74817	100.58815	169.83740	-1070.66028	129.70331	251.06508	-1009.31177	60.45001	225.87302	-1213.44800	107.80817	241.32254	-1235.37109	132.96698	192.25272	-1189.12207	81.51093	133.63971
599	4.98333	-657.58441	1047.78992	324.42957	-886.71106	1017.97638	440.78653	-795.91785	692.86572	485.32318	-790.98438	648.07410	471.87561	-734.56964	694.87378	481.35727	-739.00354	647.79785	472.02579	-761.25208	528.81006	436.85049	-782.38965	534.37909	300.28366	-677.10309	383.68533	419.50671	-664.02563	337.05902	419.47836	-734.43402	360.67841	418.07248	-712.75610	319.37994	417.95282	-603.60382	99.43001	393.13089	-593.57794	100.62330	307.21716	-520.65967	81.03727	350.38382	-736.09351	35.55487	409.93262	-763.02716	55.50148	341.99307	-747.53180	47.13419	307.04480	-666.62323	1036.15527	223.27438	-904.29053	994.51569	180.52299	-883.86475	664.14514	101.62920	-907.37836	627.46124	107.78121	-939.54138	691.66510	106.02782	-954.25037	650.39581	109.89812	-1004.54358	521.13629	148.68829	-995.38495	526.75159	278.59460	-976.88123	310.13605	140.62080	-993.64886	268.14316	140.57663	-1035.79468	326.64630	136.13335	-1044.68188	282.05603	137.03183	-1072.30920	102.10199	169.17433	-1092.48206	130.39119	249.48283	-1036.49780	60.27528	224.95967	-1238.46350	115.81715	241.12384	-1259.40198	142.26663	192.44315	-1215.55835	88.99717	133.52357
600	4.99167	-667.91162	1046.88843	322.02496	-895.75427	1016.60632	440.95984	-801.76343	691.49347	484.72034	-797.27032	646.96216	471.88464	-740.94537	694.18414	480.58011	-744.86731	647.10590	471.49036	-766.50500	527.77576	436.62766	-787.90863	532.87347	300.08057	-680.83032	383.49042	419.31174	-667.33362	336.60834	419.36761	-737.86237	359.85501	417.97318	-715.20654	319.37680	417.72244	-604.04889	99.92585	393.15872	-594.06549	101.16490	306.94528	-521.08691	82.04534	350.25613	-736.11261	35.53464	409.98428	-763.00970	55.47915	341.91376	-747.60663	47.14463	307.01956	-677.65454	1035.16833	220.92281	-915.72766	992.08710	180.92966	-891.69690	661.76318	100.09754	-914.06616	624.83496	105.15350	-947.91290	688.40881	103.90679	-961.95728	647.26721	107.37814	-1014.66956	520.12323	148.28670	-1002.72089	525.07837	278.92932	-993.62860	308.54047	139.73955	-1011.97522	267.10764	139.77734	-1051.87085	327.08734	135.40086	-1062.04041	282.33899	136.30618	-1096.56494	103.88095	168.22133	-1116.94360	133.78526	249.88295	-1062.23535	60.45169	223.60197	-1261.93530	124.55239	241.67825	-1281.76440	151.03102	192.80087	-1240.53845	96.20550	133.51772
601	5.00000	-678.38654	1045.89966	319.67557	-904.81396	1014.98279	441.07147	-808.18701	690.18976	484.31909	-802.98724	645.60858	471.23859	-747.31689	693.87878	480.24539	-750.94366	646.27057	470.90460	-772.10724	526.62006	436.38931	-793.57440	531.25146	299.90244	-684.59668	383.26410	419.06268	-670.75232	336.57019	419.03101	-741.31830	358.88333	417.81940	-718.31641	318.71512	417.51544	-604.67291	100.47421	393.25919	-594.60803	101.55726	306.80502	-521.48962	83.24709	350.11502	-736.17786	35.49707	410.02847	-763.01331	55.44068	341.86749	-747.64362	47.14705	307.01169	-688.88831	1034.11743	218.61098	-926.81494	989.59839	181.31848	-900.59473	660.06537	98.62024	-922.81470	622.67651	103.26694	-957.24200	685.82843	102.02592	-970.80475	644.49219	104.99095	-1024.87683	519.02826	148.44528	-1010.95300	524.26740	278.97733	-1009.39734	306.90308	139.07742	-1029.04895	266.21231	139.00414	-1067.33521	327.37479	134.88860	-1079.68738	284.29004	135.38170	-1119.20215	105.80384	167.01715	-1137.95056	135.92799	249.15984	-1086.13989	60.64482	222.18777	-1283.07434	131.51140	241.92606	-1302.46765	159.16460	193.47906	-1263.76770	103.17149	133.54497
